<svg version="1.1" id="Layer_1" xmlns="http://www.w3.org/2000/svg" xmlns:xlink="http://www.w3.org/1999/xlink" x="0px" y="0px"
	 width="100%" viewBox="0 0 1254 1254" enable-background="new 0 0 1254 1254" xml:space="preserve">
<path fill="#FEFEFE" opacity="1.000000" stroke="none" 
	d="
M702.000000,1255.000000 
	C468.000000,1255.000000 234.500000,1255.000000 1.000000,1255.000000 
	C1.000000,837.000000 1.000000,419.000000 1.000000,1.000000 
	C419.000000,1.000000 837.000000,1.000000 1255.000000,1.000000 
	C1255.000000,419.000000 1255.000000,837.000000 1255.000000,1255.000000 
	C1070.833374,1255.000000 886.666687,1255.000000 702.000000,1255.000000 
M278.042877,934.652466 
	C278.350220,934.962219 278.657562,935.271973 278.941101,936.052734 
	C279.253357,936.375366 279.565643,936.697998 280.039368,937.571472 
	C280.337982,937.779053 280.636566,937.986633 280.849152,938.062927 
	C280.849152,938.062927 280.733276,938.168823 280.889252,938.783813 
	C281.547943,939.587402 282.206635,940.390991 282.869263,941.090271 
	C282.869263,941.090271 282.773254,941.131287 282.950653,941.749207 
	C283.615417,942.582703 284.280182,943.416199 284.933777,944.642456 
	C285.012024,944.927979 285.197205,945.094788 285.802643,945.779541 
	C291.852417,953.527954 297.902191,961.276367 304.147736,969.644043 
	C305.306732,970.898987 306.465698,972.153931 307.580841,973.154663 
	C307.580841,973.154663 307.571808,973.412476 307.831421,974.019226 
	C318.818909,986.029724 329.430481,998.411987 340.867706,1009.977783 
	C369.746368,1039.181152 401.835083,1064.301392 438.213409,1084.804321 
	C450.286194,1090.718628 462.173035,1097.054321 474.463104,1102.475952 
	C536.277832,1129.745239 600.729004,1140.363159 667.991150,1132.126587 
	C720.412354,1125.707520 769.367676,1108.923218 814.820312,1082.063232 
	C822.484497,1077.534180 829.642883,1072.149048 837.660645,1066.846436 
	C841.251770,1064.318848 844.838562,1061.785156 848.434692,1059.264648 
	C882.065247,1035.693848 911.608765,1007.795532 936.976318,975.498657 
	C941.023987,970.345337 944.782288,964.964722 948.674377,959.689148 
	C948.396301,959.362732 948.118286,959.036316 947.840210,958.709900 
	C945.994141,959.652527 944.159119,960.617554 942.300232,961.534241 
	C931.560608,966.830566 921.114319,972.868469 910.019897,977.273071 
	C863.582397,995.709167 815.729126,1001.145996 766.467529,991.324890 
	C707.198181,979.508667 657.421814,950.346863 615.570496,907.425720 
	C561.356506,851.825745 528.645569,784.864380 512.718384,709.277832 
	C500.635254,651.933899 500.393402,594.586304 512.275330,537.174561 
	C525.265503,474.408173 550.840027,417.578125 591.825806,368.002869 
	C621.899597,331.626404 657.906006,302.728546 700.970825,283.160248 
	C746.518555,262.463684 794.257202,254.259415 844.114136,260.268768 
	C867.845398,263.129150 890.919434,268.767242 913.234314,278.983063 
	C925.181885,289.059387 937.129517,299.135681 949.781250,309.805908 
	C948.682922,307.816223 948.066467,306.370667 947.167908,305.129303 
	C943.485229,300.041687 939.716675,295.016327 936.615967,289.447998 
	C942.213867,292.515717 947.811768,295.583405 953.409668,298.651123 
	C946.839844,288.603699 939.672119,279.114655 932.017578,270.036072 
	C902.529541,235.062073 869.114746,204.409439 829.969116,180.548752 
	C813.898010,170.752792 796.743408,162.734406 779.849487,153.254578 
	C758.610229,142.311646 736.179260,134.445251 713.253357,128.013260 
	C703.534424,125.286568 693.514954,123.631165 683.123840,121.068565 
	C667.692932,119.015846 652.298462,116.596939 636.816772,115.053749 
	C628.136475,114.188492 619.311584,114.772804 609.881348,114.272148 
	C596.763245,114.801994 583.601685,114.826958 570.534973,115.952866 
	C524.562378,119.914108 480.926819,132.585175 439.616699,152.961639 
	C393.893768,175.514740 353.979523,205.898911 319.094849,243.124298 
	C277.222473,287.806244 245.889725,339.027069 222.767792,395.492004 
	C205.739365,437.076355 193.946701,480.184570 187.420776,524.567444 
	C184.044449,547.530029 183.054626,570.843506 180.705551,594.753113 
	C180.659546,595.417358 180.592987,596.080933 180.570435,596.745972 
	C179.194458,637.325256 181.893356,677.661865 189.520813,717.513428 
	C193.483582,738.217957 199.337311,758.560486 204.489502,779.886963 
	C204.697784,781.028259 204.768234,782.215881 205.134445,783.304016 
	C215.532486,814.199707 226.348114,844.965088 242.062057,873.643677 
	C252.112335,891.985718 263.104156,909.811951 273.879822,928.522339 
	C274.556641,929.398010 275.233429,930.273621 275.915894,931.061890 
	C275.915894,931.061890 275.832031,931.087097 275.987823,931.698486 
	C276.636322,932.506348 277.284790,933.314209 277.971954,934.034851 
	C277.971954,934.034851 277.880432,934.007812 278.042877,934.652466 
z"/>
<path fill="#FDBC0F" opacity="1.000000" stroke="none" 
	d="
M780.081665,153.907440 
	C796.743408,162.734406 813.898010,170.752792 829.969116,180.548752 
	C869.114746,204.409439 902.529541,235.062073 932.017578,270.036072 
	C939.672119,279.114655 946.839844,288.603699 953.409668,298.651123 
	C947.811768,295.583405 942.213867,292.515717 936.304688,289.736450 
	C935.993408,290.024872 936.052429,290.021240 936.150391,289.575531 
	C936.078003,288.877747 935.907715,288.625671 935.424194,288.369568 
	C927.698364,285.071747 920.285767,281.777924 912.873108,278.484100 
	C890.919434,268.767242 867.845398,263.129150 844.114136,260.268768 
	C794.257202,254.259415 746.518555,262.463684 700.970825,283.160248 
	C657.906006,302.728546 621.899597,331.626404 591.825806,368.002869 
	C550.840027,417.578125 525.265503,474.408173 512.275330,537.174561 
	C500.393402,594.586304 500.635254,651.933899 512.718384,709.277832 
	C528.645569,784.864380 561.356506,851.825745 615.570496,907.425720 
	C657.421814,950.346863 707.198181,979.508667 766.467529,991.324890 
	C815.729126,1001.145996 863.582397,995.709167 910.019897,977.273071 
	C921.114319,972.868469 931.560608,966.830566 942.300232,961.534241 
	C944.159119,960.617554 945.994141,959.652527 947.840210,958.709900 
	C948.118286,959.036316 948.396301,959.362732 948.674377,959.689148 
	C944.782288,964.964722 941.023987,970.345337 936.976318,975.498657 
	C911.608765,1007.795532 882.065247,1035.693848 848.434692,1059.264648 
	C844.838562,1061.785156 841.251770,1064.318848 836.984802,1066.953125 
	C829.872864,1070.512573 823.470947,1074.030762 816.994690,1077.406372 
	C788.675659,1092.167603 758.779602,1102.605835 727.255066,1109.824463 
	C692.277771,1116.232422 657.644226,1116.993530 622.870117,1112.227173 
	C573.092773,1105.404541 527.345154,1087.670654 484.781097,1061.313354 
	C442.451050,1035.100952 406.137146,1002.068665 374.411957,963.838623 
	C328.623688,908.662231 295.070557,846.762268 273.528839,778.463745 
	C254.495529,718.117920 245.762650,656.244934 247.662567,592.890320 
	C248.724121,557.492004 252.926971,522.494873 260.564117,487.974274 
	C272.249817,435.154114 291.150391,385.004822 318.099365,338.000305 
	C352.007874,278.856995 396.197144,229.102234 452.822449,190.732697 
	C503.456512,156.422836 559.088623,135.813156 620.119019,130.726700 
	C636.667358,129.347519 653.384399,129.993652 670.439331,129.837723 
	C703.385620,132.447449 735.088745,138.876724 765.882324,149.740707 
	C770.527283,151.379471 775.344238,152.530685 780.081665,153.907440 
z"/>
<path fill="#13AF4D" opacity="1.000000" stroke="none" 
	d="
M670.024048,129.710220 
	C653.384399,129.993652 636.667358,129.347519 620.119019,130.726700 
	C559.088623,135.813156 503.456512,156.422836 452.822449,190.732697 
	C396.197144,229.102234 352.007874,278.856995 318.099365,338.000305 
	C291.150391,385.004822 272.249817,435.154114 260.564117,487.974274 
	C252.926971,522.494873 248.724121,557.492004 247.662567,592.890320 
	C245.762650,656.244934 254.495529,718.117920 273.528839,778.463745 
	C295.070557,846.762268 328.623688,908.662231 374.411957,963.838623 
	C406.137146,1002.068665 442.451050,1035.100952 484.781097,1061.313354 
	C527.345154,1087.670654 573.092773,1105.404541 622.870117,1112.227173 
	C657.644226,1116.993530 692.277771,1116.232422 727.177979,1110.129517 
	C727.138000,1110.677368 726.726074,1110.970215 726.268005,1111.100342 
	C695.429382,1119.853882 663.965210,1124.777344 631.950867,1125.863525 
	C607.597412,1126.689941 583.483521,1124.217651 559.587036,1119.425415 
	C532.257690,1113.944824 505.680450,1106.052246 480.259399,1094.581055 
	C468.021301,1089.058594 456.076813,1082.885498 443.807495,1076.727295 
	C438.661957,1073.415894 433.451965,1070.731201 428.799072,1067.292480 
	C408.823578,1052.530151 388.022614,1038.671509 369.424408,1022.320129 
	C351.524170,1006.582275 335.924255,988.220947 319.399200,970.930481 
	C314.429626,965.730774 313.321136,965.782898 309.634094,972.154236 
	C309.279816,972.766418 308.274780,973.002075 307.571808,973.412476 
	C307.571808,973.412476 307.580841,973.154663 307.688141,972.911255 
	C306.514282,971.453491 305.233124,970.239136 303.951965,969.024780 
	C297.902191,961.276367 291.852417,953.527954 285.997894,945.324219 
	C292.462006,939.212524 293.024048,936.904785 289.682068,931.477600 
	C280.639801,916.793518 271.423676,902.210815 262.672028,887.354858 
	C248.640869,863.536865 237.441330,838.334595 227.423218,812.617859 
	C222.978973,801.209412 219.201385,789.541260 215.072021,777.595581 
	C209.610489,752.818115 203.803345,728.515259 198.895126,704.032166 
	C193.836639,678.799316 192.667206,653.123169 191.927322,627.447815 
	C191.866104,625.323486 191.411148,623.210449 191.136230,620.654541 
	C191.390625,610.828613 191.647934,601.440308 191.957794,591.706116 
	C191.986832,590.895325 191.963303,590.430420 191.958282,589.523682 
	C192.935135,577.840393 193.281250,566.505737 194.975845,555.376343 
	C198.818588,530.138672 202.111237,504.723114 207.820877,479.884033 
	C218.895401,431.705780 236.443100,385.835693 260.575592,342.514313 
	C280.539185,306.676697 304.680389,274.018433 333.151642,244.577682 
	C353.791016,223.235519 376.415619,204.133087 401.092529,187.598801 
	C435.893127,164.281342 473.346680,146.602524 514.023682,136.187836 
	C536.729065,130.374466 559.717163,126.038307 583.199341,124.796265 
	C592.816040,124.287605 602.425781,123.646614 612.415283,123.231140 
	C614.757874,123.575127 616.720581,123.845657 618.690369,123.914734 
	C623.989319,124.100594 629.315125,123.928078 634.587219,124.389793 
	C646.417847,125.425888 658.222473,126.760086 670.032166,128.262634 
	C670.025818,128.938293 670.024902,129.324265 670.024048,129.710220 
z"/>
<path fill="#63EE94" opacity="1.000000" stroke="none" 
	d="
M612.038696,123.065826 
	C602.425781,123.646614 592.816040,124.287605 583.199341,124.796265 
	C559.717163,126.038307 536.729065,130.374466 514.023682,136.187836 
	C473.346680,146.602524 435.893127,164.281342 401.092529,187.598801 
	C376.415619,204.133087 353.791016,223.235519 333.151642,244.577682 
	C304.680389,274.018433 280.539185,306.676697 260.575592,342.514313 
	C236.443100,385.835693 218.895401,431.705780 207.820877,479.884033 
	C202.111237,504.723114 198.818588,530.138672 194.975845,555.376343 
	C193.281250,566.505737 192.935135,577.840393 191.670166,589.576538 
	C191.052124,590.391541 190.740677,590.711914 190.429230,591.032288 
	C190.921234,591.372192 191.413239,591.712158 191.905228,592.052063 
	C191.647934,601.440308 191.390625,610.828613 190.768158,620.573608 
	C182.580109,615.227478 185.205841,624.319946 182.012634,627.806702 
	C182.012634,617.433350 182.070786,608.547974 181.966034,599.664429 
	C181.943710,597.772156 181.328613,595.886902 180.986603,593.998413 
	C183.054626,570.843506 184.044449,547.530029 187.420776,524.567444 
	C193.946701,480.184570 205.739365,437.076355 222.767792,395.492004 
	C245.889725,339.027069 277.222473,287.806244 319.094849,243.124298 
	C353.979523,205.898911 393.893768,175.514740 439.616699,152.961639 
	C480.926819,132.585175 524.562378,119.914108 570.534973,115.952866 
	C583.601685,114.826958 596.763245,114.801994 610.440674,114.797821 
	C611.346191,117.904266 611.692444,120.485046 612.038696,123.065826 
z"/>
<path fill="#094417" opacity="1.000000" stroke="none" 
	d="
M443.999390,1077.007080 
	C456.076813,1082.885498 468.021301,1089.058594 480.259399,1094.581055 
	C505.680450,1106.052246 532.257690,1113.944824 559.587036,1119.425415 
	C583.483521,1124.217651 607.597412,1126.689941 631.950867,1125.863525 
	C663.965210,1124.777344 695.429382,1119.853882 726.268005,1111.100342 
	C726.726074,1110.970215 727.138000,1110.677368 727.648560,1110.155273 
	C758.779602,1102.605835 788.675659,1092.167603 816.994690,1077.406372 
	C823.470947,1074.030762 829.872864,1070.512573 836.671997,1067.109863 
	C829.642883,1072.149048 822.484497,1077.534180 814.820312,1082.063232 
	C769.367676,1108.923218 720.412354,1125.707520 667.991150,1132.126587 
	C600.729004,1140.363159 536.277832,1129.745239 474.463104,1102.475952 
	C462.173035,1097.054321 450.286194,1090.718628 438.222534,1084.207275 
	C440.154236,1081.409180 442.076813,1079.208130 443.999390,1077.007080 
z"/>
<path fill="#29C766" opacity="1.000000" stroke="none" 
	d="
M215.121185,777.991028 
	C219.201385,789.541260 222.978973,801.209412 227.423218,812.617859 
	C237.441330,838.334595 248.640869,863.536865 262.672028,887.354858 
	C271.423676,902.210815 280.639801,916.793518 289.682068,931.477600 
	C293.024048,936.904785 292.462006,939.212524 285.841217,945.005798 
	C285.197205,945.094788 285.012024,944.927979 284.946960,944.056152 
	C284.231171,942.690369 283.502197,941.910828 282.773254,941.131287 
	C282.773254,941.131287 282.869263,941.090271 282.907959,940.753662 
	C282.208832,939.667603 281.471069,938.918213 280.733276,938.168823 
	C280.733276,938.168823 280.849152,938.062927 280.795868,937.868652 
	C280.454376,937.456421 280.166138,937.238464 279.877930,937.020569 
	C279.565643,936.697998 279.253357,936.375366 278.863159,935.495422 
	C278.483643,934.627991 278.182037,934.317871 277.880432,934.007812 
	C277.880432,934.007812 277.971954,934.034851 277.967560,933.700562 
	C277.252777,932.606567 276.542389,931.846863 275.832031,931.087097 
	C275.832031,931.087097 275.915894,931.061890 275.934937,930.713257 
	C275.193939,929.532898 274.433899,928.701172 273.673889,927.869385 
	C263.104156,909.811951 252.112335,891.985718 242.062057,873.643677 
	C226.348114,844.965088 215.532486,814.199707 205.134445,783.304016 
	C204.768234,782.215881 204.697784,781.028259 204.818008,779.455872 
	C208.282318,776.855774 211.491074,775.390564 215.121185,777.991028 
z"/>
<path fill="#3FDC79" opacity="1.000000" stroke="none" 
	d="
M215.072021,777.595581 
	C211.491074,775.390564 208.282318,776.855774 204.741669,779.045654 
	C199.337311,758.560486 193.483582,738.217957 189.520813,717.513428 
	C181.893356,677.661865 179.194458,637.325256 180.570435,596.745972 
	C180.592987,596.080933 180.659546,595.417358 180.846069,594.375732 
	C181.328613,595.886902 181.943710,597.772156 181.966034,599.664429 
	C182.070786,608.547974 182.012634,617.433350 182.012634,627.806702 
	C185.205841,624.319946 182.580109,615.227478 190.771057,621.011230 
	C191.411148,623.210449 191.866104,625.323486 191.927322,627.447815 
	C192.667206,653.123169 193.836639,678.799316 198.895126,704.032166 
	C203.803345,728.515259 209.610489,752.818115 215.072021,777.595581 
z"/>
<path fill="#097D37" opacity="1.000000" stroke="none" 
	d="
M443.807495,1076.727295 
	C442.076813,1079.208130 440.154236,1081.409180 438.051239,1083.908569 
	C401.835083,1064.301392 369.746368,1039.181152 340.867706,1009.977783 
	C329.430481,998.411987 318.818909,986.029724 307.701599,973.715820 
	C308.274780,973.002075 309.279816,972.766418 309.634094,972.154236 
	C313.321136,965.782898 314.429626,965.730774 319.399200,970.930481 
	C335.924255,988.220947 351.524170,1006.582275 369.424408,1022.320129 
	C388.022614,1038.671509 408.823578,1052.530151 428.799072,1067.292480 
	C433.451965,1070.731201 438.661957,1073.415894 443.807495,1076.727295 
z"/>
<path fill="#3FDC79" opacity="1.000000" stroke="none" 
	d="
M612.415283,123.231140 
	C611.692444,120.485046 611.346191,117.904266 610.775879,115.013748 
	C619.311584,114.772804 628.136475,114.188492 636.816772,115.053749 
	C652.298462,116.596939 667.692932,119.015846 683.593262,121.608337 
	C685.355530,122.984291 686.648315,123.820465 687.941162,124.656639 
	C687.994263,125.193436 688.047363,125.730240 688.100525,126.267036 
	C685.698547,127.169228 683.334473,128.677292 680.885742,128.830170 
	C677.301514,129.053970 673.656677,128.306488 670.037659,127.972931 
	C658.222473,126.760086 646.417847,125.425888 634.587219,124.389793 
	C629.315125,123.928078 623.989319,124.100594 618.690369,123.914734 
	C616.720581,123.845657 614.757874,123.575127 612.415283,123.231140 
z"/>
<path fill="#29C766" opacity="1.000000" stroke="none" 
	d="
M670.032166,128.262634 
	C673.656677,128.306488 677.301514,129.053970 680.885742,128.830170 
	C683.334473,128.677292 685.698547,127.169228 688.100525,126.267036 
	C688.047363,125.730240 687.994263,125.193436 687.941162,124.656639 
	C686.648315,123.820465 685.355530,122.984291 683.847412,121.818481 
	C693.514954,123.631165 703.534424,125.286568 713.253357,128.013260 
	C736.179260,134.445251 758.610229,142.311646 779.965576,153.581009 
	C775.344238,152.530685 770.527283,151.379471 765.882324,149.740707 
	C735.088745,138.876724 703.385620,132.447449 670.439331,129.837723 
	C670.024902,129.324265 670.025818,128.938293 670.032166,128.262634 
z"/>
<path fill="#29C766" opacity="1.000000" stroke="none" 
	d="
M913.053711,278.733582 
	C920.285767,281.777924 927.698364,285.071747 935.081665,288.470032 
	C935.385681,289.056763 935.719055,289.539001 936.052429,290.021240 
	C936.052429,290.021240 935.993408,290.024872 935.986572,289.996460 
	C939.716675,295.016327 943.485229,300.041687 947.167908,305.129303 
	C948.066467,306.370667 948.682922,307.816223 949.781250,309.805908 
	C937.129517,299.135681 925.181885,289.059387 913.053711,278.733582 
z"/>
<path fill="#097D37" opacity="1.000000" stroke="none" 
	d="
M304.049866,969.334412 
	C305.233124,970.239136 306.514282,971.453491 307.710083,973.038330 
	C306.465698,972.153931 305.306732,970.898987 304.049866,969.334412 
z"/>
<path fill="#13AF4D" opacity="1.000000" stroke="none" 
	d="
M280.811279,938.476318 
	C281.471069,938.918213 282.208832,939.667603 282.905975,940.805786 
	C282.206635,940.390991 281.547943,939.587402 280.811279,938.476318 
z"/>
<path fill="#13AF4D" opacity="1.000000" stroke="none" 
	d="
M282.861938,941.440247 
	C283.502197,941.910828 284.231171,942.690369 284.952515,943.859741 
	C284.280182,943.416199 283.615417,942.582703 282.861938,941.440247 
z"/>
<path fill="#13AF4D" opacity="1.000000" stroke="none" 
	d="
M275.909912,931.392822 
	C276.542389,931.846863 277.252777,932.606567 277.948242,933.744141 
	C277.284790,933.314209 276.636322,932.506348 275.909912,931.392822 
z"/>
<path fill="#13AF4D" opacity="1.000000" stroke="none" 
	d="
M273.776855,928.195862 
	C274.433899,928.701172 275.193939,929.532898 275.932129,930.756958 
	C275.233429,930.273621 274.556641,929.398010 273.776855,928.195862 
z"/>
<path fill="#13AF4D" opacity="1.000000" stroke="none" 
	d="
M277.961670,934.330139 
	C278.182037,934.317871 278.483643,934.627991 278.875061,935.259888 
	C278.657562,935.271973 278.350220,934.962219 277.961670,934.330139 
z"/>
<path fill="#13AF4D" opacity="1.000000" stroke="none" 
	d="
M279.958649,937.296021 
	C280.166138,937.238464 280.454376,937.456421 280.838867,937.934326 
	C280.636566,937.986633 280.337982,937.779053 279.958649,937.296021 
z"/>
<path fill="#FEFEFE" opacity="1.000000" stroke="none" 
	d="
M936.150391,289.575531 
	C935.719055,289.539001 935.385681,289.056763 935.394836,288.474060 
	C935.907715,288.625671 936.078003,288.877747 936.150391,289.575531 
z"/>
<path fill="#3FDC79" opacity="1.000000" stroke="none" 
	d="
M191.957794,591.706116 
	C191.413239,591.712158 190.921234,591.372192 190.429230,591.032288 
	C190.740677,590.711914 191.052124,590.391541 191.651672,590.018372 
	C191.963303,590.430420 191.986832,590.895325 191.957794,591.706116 
z"/>
</svg>